<?xml version="1.0" encoding="utf-8"?>
<!-- Generator: Adobe Illustrator 23.1.0, SVG Export Plug-In . SVG Version: 6.00 Build 0)  -->
<svg version="1.1" id="Layer_1" xmlns="http://www.w3.org/2000/svg" xmlns:xlink="http://www.w3.org/1999/xlink" x="0px" y="0px"
	 viewBox="0 0 252 506.3" style="enable-background:new 0 0 252 506.3;" xml:space="preserve">
<style type="text/css">
	.st0{fill:#FFFFFF;}
	.st1{fill:#DCDCE9;}
	.st2{fill:url(#Intersection_4_1_);}
	.st3{fill:#FFCB3E;}
	.st4{font-family:'Gautami';}
	.st5{font-size:10.825px;}
	.st6{font-size:8.419px;}
	.st7{opacity:0.35;}
	.st8{fill:none;}
	.st9{fill:none;stroke:#FFFFFF;stroke-width:0.191;stroke-miterlimit:10;}
	.st10{opacity:0.4;fill:#FFFFFF;enable-background:new    ;}
	.st11{font-family:'SegoeUI-SemiBold';}
	.st12{font-size:9.02px;}
	.st13{opacity:0.2;fill:#FFFFFF;enable-background:new    ;}
	.st14{fill:#EFF2FB;}
</style>
<g id="Group_434" transform="translate(-856 -193.407)">
	<g id="black-mockup">
		<g id="phone">
			<path id="body" class="st0" d="M893.6,699.8c-19.5,0-35.2-15.8-35.2-35.2c0,0,0,0,0,0V380.2c-1.3,0-2.3-1.1-2.3-2.3l0,0v-31.7
				c0-1.3,1.1-2.3,2.3-2.3c0,0,0,0,0,0v-9.4c-1.3,0-2.3-1.1-2.3-2.3v-31.7c0-1.3,1.1-2.3,2.3-2.4c0,0,0,0,0,0l0,0v-17.6
				c-1.3,0-2.3-1-2.3-2.3v-14.1c0-1.3,1.1-2.3,2.3-2.4c0,0,0,0,0,0l0,0v-32.9c0-19.5,15.8-35.2,35.2-35.2h176.8
				c19.5,0,35.2,15.8,35.2,35.2v0v81.7c1.3,0,2.3,1.1,2.3,2.3l0,0v52.9c0,1.3-1.1,2.4-2.3,2.4l0,0v296.6c0,19.5-15.8,35.2-35.2,35.2
				c0,0,0,0,0,0H893.6z"/>
			<path id="camera" class="st1" d="M1005.8,213.4c0-1.9,1.6-3.5,3.6-3.5c1.9,0,3.4,1.6,3.5,3.5l0,0c0,1.9-1.6,3.5-3.5,3.5l0,0
				C1007.4,216.9,1005.8,215.3,1005.8,213.4z M968.2,215.1c-1,0-1.8-0.8-1.8-1.8l0,0c0-1,0.8-1.8,1.8-1.8h27.6c1,0,1.8,0.8,1.8,1.8
				c0,1-0.8,1.8-1.8,1.8L968.2,215.1z"/>
		</g>
	</g>
	<g id="Group_433">
		
			<linearGradient id="Intersection_4_1_" gradientUnits="userSpaceOnUse" x1="924.694" y1="503.817" x2="923.676" y2="502.802" gradientTransform="matrix(220.0611 0 0 -476.731 -202396.5938 240392.8125)">
			<stop  offset="0" style="stop-color:#C1549C"/>
			<stop  offset="1" style="stop-color:#7E549F"/>
		</linearGradient>
		<path id="Intersection_4" class="st2" d="M894.5,684.8c-2.3,0-4.6-0.3-6.8-1c-0.5-0.2-1-0.4-1.5-0.6c-8.7-3.7-14.4-12.2-14.3-21.6
			v-430c0-13,10.5-23.5,23.5-23.5c0,0,0,0,0,0h22.3c1.6,0,2.9,1.3,2.9,2.9v1.8c0,7.1,5.8,12.9,12.9,12.9c0,0,0,0,0,0h98.1
			c6.5,0,11.7-5.2,11.7-11.7c0,0,0,0,0,0V211c0-1.6,1.3-2.9,2.9-2.9h22.3c10.4,0,19.6,6.9,22.5,16.8c0.5,1.9,0.7,3.8,0.7,5.8V662
			c0,12.6-10.2,22.9-22.9,22.9l0,0H894.5z"/>
		<g id="Group_430">
			<g id="Group_1">
				<path id="Rectangle_70-3" class="st3" d="M899,515.7h165.4c9.1,0,16.5,7.4,16.5,16.5l0,0c0,9.1-7.4,16.5-16.5,16.5c0,0,0,0,0,0
					H899c-9.1,0-16.5-7.4-16.5-16.5v0l0,0C882.5,523.1,889.9,515.7,899,515.7C899,515.7,899,515.7,899,515.7z"/>
			</g>
			<g id="Get_to_App">
				<text transform="matrix(1 0 0 1 945.302 536.185)" class="st0 st4 st5">Use password</text>
			</g>
		</g>
		<g id="Create_account">
			<text transform="matrix(1 0 0 1 882.46 576.477)" class="st0 st4 st6">Create account</text>
		</g>
		<g id="Need_Help_">
			<text transform="matrix(1 0 0 1 1031.255 576.477)" class="st0 st4 st6">Need Help?</text>
		</g>
		<g id="Status_Bar">
			<g id="Battery">
				<g id="Border" class="st7">
					<path id="Rectangle_1" class="st8" d="M1073.5,218.9h10c0.9,0,1.6,0.7,1.6,1.6v3.6c0,0.9-0.7,1.6-1.6,1.6h-10
						c-0.9,0-1.6-0.7-1.6-1.6v-3.6C1071.9,219.6,1072.6,218.9,1073.5,218.9z"/>
					<path id="Rectangle_2" class="st9" d="M1073.5,219.2h10c0.7,0,1.3,0.6,1.3,1.3v3.6c0,0.7-0.6,1.3-1.3,1.3h-10
						c-0.7,0-1.3-0.6-1.3-1.3v-3.6C1072.2,219.7,1072.8,219.2,1073.5,219.2z"/>
				</g>
				<path id="Cap" class="st10" d="M1085.7,221.1v2.4c0.7-0.3,1-1,0.7-1.7C1086.3,221.5,1086,221.2,1085.7,221.1"/>
				<path id="Capacity" class="st0" d="M1073.9,220.1h9.2c0.4,0,0.8,0.4,0.8,0.8v2.8c0,0.4-0.4,0.8-0.8,0.8h-9.2
					c-0.4,0-0.8-0.4-0.8-0.8v-2.8C1073.1,220.4,1073.5,220.1,1073.9,220.1z"/>
			</g>
			<path id="Wifi" class="st0" d="M1064.3,225.5c-0.1,0-0.1,0-0.1-0.1l-1.2-1.2c-0.1-0.1-0.1-0.2,0-0.3c0,0,0,0,0,0l0,0
				c0.8-0.6,1.9-0.6,2.7,0c0,0,0.1,0.1,0.1,0.1c0,0.1,0,0.1-0.1,0.1l-1.2,1.2C1064.4,225.4,1064.3,225.5,1064.3,225.5z
				 M1066.4,223.3c0,0-0.1,0-0.1-0.1c-1.1-1-2.8-1-4,0c-0.1,0.1-0.2,0.1-0.3,0l-0.7-0.7c-0.1-0.1-0.1-0.2,0-0.3l0,0
				c1.7-1.5,4.2-1.5,5.9,0c0,0,0.1,0.1,0.1,0.1c0,0.1,0,0.1-0.1,0.1l-0.7,0.7C1066.5,223.3,1066.4,223.3,1066.4,223.3z M1068,221.7
				c0,0-0.1,0-0.1-0.1c-2-1.9-5.2-1.9-7.2,0c0,0-0.1,0.1-0.1,0.1c0,0-0.1,0-0.1-0.1l-0.7-0.7c-0.1-0.1-0.1-0.2,0-0.3c0,0,0,0,0,0
				l0,0c2.5-2.4,6.5-2.4,9.1,0c0,0,0.1,0.1,0.1,0.1c0,0.1,0,0.1-0.1,0.1l-0.7,0.7C1068.1,221.7,1068,221.7,1068,221.7L1068,221.7z"
				/>
			<path id="Cellular_Connection" class="st0" d="M1056.1,225.5h-0.6c-0.3,0-0.6-0.3-0.6-0.6v-5.2c0-0.3,0.3-0.6,0.6-0.6h0.6
				c0.3,0,0.6,0.3,0.6,0.6v5.2C1056.7,225.2,1056.4,225.5,1056.1,225.5z M1053.2,225.5h-0.6c-0.3,0-0.6-0.3-0.6-0.6v-3.8
				c0-0.3,0.3-0.6,0.6-0.6h0.6c0.3,0,0.6,0.3,0.6,0.6v3.8C1053.8,225.2,1053.6,225.5,1053.2,225.5z M1050.4,225.5h-0.6
				c-0.3,0-0.6-0.3-0.6-0.6v-2.4c0-0.3,0.3-0.6,0.6-0.6h0.6c0.3,0,0.6,0.3,0.6,0.6v2.4C1051,225.2,1050.8,225.5,1050.4,225.5z
				 M1047.6,225.5h-0.6c-0.3,0-0.6-0.3-0.6-0.6v-1.2c0-0.3,0.3-0.6,0.6-0.6h0.6c0.3,0,0.6,0.3,0.6,0.6v1.2
				C1048.2,225.2,1048,225.5,1047.6,225.5L1047.6,225.5z"/>
			<g id="Time_Style">
				<g id="_Time">
					<text transform="matrix(1 0 0 1 890.683 226.681)" class="st0 st11 st12">9:41</text>
				</g>
			</g>
		</g>
		<g id="Group_431">
			<path id="Path_210" class="st13" d="M899,444.8h165.4c9.1,0,16.5,7.4,16.5,16.5s-7.4,16.5-16.5,16.5H899
				c-9.1,0-16.5-7.4-16.5-16.5S889.9,444.8,899,444.8z"/>
			<g id="Password">
				<text transform="matrix(1 0 0 1 929.968 465.225)" class="st14 st4 st5">Unlock with Face ID</text>
			</g>
			<path id="Path_28" class="st14" d="M914.9,460.8c-0.2-0.2-0.4-0.3-0.7-0.3h-0.3v-1.8c0-1.1-0.4-2.2-1.3-3c-1.7-1.7-4.3-1.7-6,0
				l0,0c-0.8,0.8-1.3,1.9-1.3,3v1.8H905c-0.5,0-0.9,0.4-0.9,0.9c0,0,0,0,0,0v5.5c0,0.5,0.4,0.9,0.9,0.9c0,0,0,0,0,0h9.2
				c0.5,0,0.9-0.4,0.9-0.9v0v-5.5C915.1,461.2,915,461,914.9,460.8z M912.1,460.5h-4.9v-1.8c0-0.7,0.3-1.3,0.7-1.7c1-1,2.5-1,3.5,0
				l0,0c0.5,0.5,0.7,1.1,0.7,1.7V460.5z"/>
		</g>
		<g id="Group_432">
			<path id="Path_209" class="st13" d="M899,398.5h165.4c9.1,0.1,16.5,7.5,16.4,16.7c-0.1,9-7.4,16.3-16.4,16.4H899
				c-9.1,0.1-16.6-7.3-16.7-16.4c-0.1-9.1,7.3-16.6,16.4-16.7C898.8,398.5,898.9,398.5,899,398.5z"/>
			<g id="Username">
				<text transform="matrix(1 0 0 1 929.968 418.918)" class="st14 st4 st5">Username</text>
			</g>
			<g id="user-shape">
				<g id="Group_96">
					<path id="Path_29" class="st14" d="M908.7,415c1.8,0,3.2-1.4,3.2-3.2c0-0.8-0.3-1.6-0.9-2.2c-1.2-1.2-3.2-1.2-4.5,0l0,0
						c-1.2,1.2-1.2,3.2,0,4.5C907.1,414.7,907.9,415,908.7,415L908.7,415z"/>
					<path id="Path_30" class="st14" d="M914.5,418.4c0-0.3-0.1-0.6-0.1-0.9c-0.1-0.3-0.1-0.6-0.2-0.9c-0.1-0.3-0.2-0.6-0.4-0.8
						c-0.1-0.2-0.3-0.5-0.5-0.7c-0.2-0.2-0.4-0.3-0.7-0.4c-0.3-0.1-0.6-0.2-0.9-0.2c-0.1,0-0.2,0.1-0.3,0.2
						c-0.2,0.1-0.4,0.3-0.6,0.4c-0.3,0.2-0.6,0.3-0.9,0.4c-0.7,0.2-1.5,0.2-2.2,0c-0.3-0.1-0.6-0.2-0.9-0.4
						c-0.2-0.1-0.4-0.3-0.6-0.4c-0.1-0.1-0.2-0.1-0.3-0.2c-0.3,0-0.6,0.1-0.9,0.2c-0.3,0.1-0.5,0.3-0.7,0.4
						c-0.2,0.2-0.4,0.4-0.5,0.7c-0.1,0.3-0.3,0.5-0.4,0.8c-0.1,0.3-0.2,0.6-0.2,0.9c-0.1,0.3-0.1,0.6-0.1,0.9c0,0.3,0,0.6,0,0.9
						c0,0.6,0.2,1.2,0.6,1.6c0.4,0.4,1,0.6,1.6,0.6h7.2c0.6,0,1.2-0.2,1.6-0.6c0.4-0.4,0.6-1,0.6-1.6
						C914.5,418.9,914.5,418.7,914.5,418.4z"/>
				</g>
			</g>
		</g>
	</g>
</g>
<g>
	<path class="st0" d="M97.7,85v43.9l11.3,11.3v-21.3h27c3.1,0,5.6-2.5,5.6-5.6v0c0-3.1-2.5-5.6-5.6-5.6h-27V96.3h33.9L131.6,85H97.7
		z"/>
	<path class="st0" d="M151.6,105.1l13.8,13.8v23.8h-32.6V164l-12.5-12.5v-21.3h19c5.4,0,12.3-4.6,12.3-10V105.1z"/>
</g>
</svg>
