<?xml version="1.0" encoding="utf-8"?>
<!-- Generator: Adobe Illustrator 23.1.0, SVG Export Plug-In . SVG Version: 6.00 Build 0)  -->
<svg version="1.1" id="Layer_1" xmlns="http://www.w3.org/2000/svg" xmlns:xlink="http://www.w3.org/1999/xlink" x="0px" y="0px"
	 viewBox="0 0 1370.1 792" style="enable-background:new 0 0 1370.1 792;" xml:space="preserve">
<style type="text/css">
	.st0{fill:url(#Path_152_1_);}
	.st1{fill:url(#Path_196_1_);}
	.st2{fill:url(#Path_197_1_);}
	.st3{opacity:0.2;fill:#FFFFFF;enable-background:new    ;}
	.st4{opacity:0.2;}
	.st5{fill:none;}
	.st6{fill:#FB836F;}
	.st7{opacity:0.2;fill:#FB836F;enable-background:new    ;}
</style>
<g id="Group_182" transform="translate(0)">
	
		<linearGradient id="Path_152_1_" gradientUnits="userSpaceOnUse" x1="627.5075" y1="453.452" x2="626.5075" y2="452.462" gradientTransform="matrix(1370.1333 0 0 -792 -858446.5625 359114)">
		<stop  offset="0" style="stop-color:#C1549C"/>
		<stop  offset="1" style="stop-color:#7E549F"/>
	</linearGradient>
	<path id="Path_152" class="st0" d="M0,792c0,0,138.5-112.9,310-121.4s208.5,80.6,376,87.6s159.5-115.4,308-125.4
		s188.5,92.5,286,85.6s90-47.8,90-47.8V0H0V792z"/>
	
		<linearGradient id="Path_196_1_" gradientUnits="userSpaceOnUse" x1="626.61" y1="453.5449" x2="625.61" y2="452.5549" gradientTransform="matrix(496.379 0 0 -792 -310602.625 359114)">
		<stop  offset="0" style="stop-color:#FB836F;stop-opacity:0.161"/>
		<stop  offset="1" style="stop-color:#FFFFFF;stop-opacity:0"/>
	</linearGradient>
	<path id="Path_196" class="st1" d="M0,0h316c17.9,205.7,285.8,234.5,134,302c-162,72-212,170-168,270c19.4,44.1,33,76.1,42.1,98.1
		c-4.6,0.1-9.3,0.2-14.1,0.5C138.5,679.1,0,792,0,792V0z"/>
	
		<linearGradient id="Path_197_1_" gradientUnits="userSpaceOnUse" x1="626.9389" y1="453.6279" x2="625.9389" y2="452.6379" gradientTransform="matrix(643.3043 0 0 -613.953 -401998.0938 278458.7188)">
		<stop  offset="0" style="stop-color:#FB836F;stop-opacity:0.4"/>
		<stop  offset="1" style="stop-color:#FFFFFF;stop-opacity:0"/>
	</linearGradient>
	<path id="Path_197" class="st2" d="M970,326c98-120-200-10-234-116c-25.5-79.6,5-151.3,48.3-210h232.2
		c51.8,55,162.6,101.1,297.5,92c27.6-1.9,45.6,3.2,56,13.8v83.7c-35,95.5-144.1,243.1-218,360.6c-28.6,45.5-59.2,64-88.1,64
		C970,613.9,895,417.8,970,326z"/>
	<circle id="Ellipse_68" class="st3" cx="496.5" cy="569.5" r="13.5"/>
	<circle id="Ellipse_69" class="st3" cx="337.5" cy="60.5" r="15.5"/>
	<circle id="Ellipse_70" class="st3" cx="1155" cy="53" r="8"/>
	<g id="Path_155" transform="matrix(0.259, 0.966, -0.966, 0.259, 73.396, 351.263)" class="st4">
		<path class="st5" d="M24.9,15.3c3.3-5.5,10.7-7.3,16.6-4.1c1.9,1.1,3.5,2.6,4.6,4.4l20.2,33c3.4,5.6,1.5,12.7-4.3,15.8
			c-1.8,1-3.9,1.5-6,1.4l-39.3-0.6C9.9,65.1,4.3,59.8,4.2,53.4c0-2,0.5-4,1.5-5.7L24.9,15.3z"/>
		<path class="st6" d="M35.5,17.2c-0.7,0-2.6,0.2-3.7,2L12.7,51.5c-1.1,1.8-0.3,3.4,0.1,4c0.4,0.6,1.5,2,3.7,2.1l39.3,0.6
			c2.2,0,3.3-1.4,3.6-2c0.4-0.6,1.1-2.2,0-4l-20.2-33C38.1,17.4,36.3,17.2,35.5,17.2 M35.4,9.6c4.1,0.1,8.3,2.1,10.7,6l20.2,33
			c4.8,7.8-1,17.3-10.3,17.2l-39.3-0.6C7.2,65,1.2,55.3,5.7,47.7l19.2-32.4C27.2,11.4,31.3,9.5,35.4,9.6z"/>
	</g>
	<path id="Path_195" class="st7" d="M1256.5,597.1c-6.5,0-12.7-2.2-17.3-6.2c-4.6-3.9-7.2-9.3-7.2-14.8c0-5.6,2.6-10.9,7.2-14.9
		c4.6-4,10.8-6.2,17.3-6.1c6.5,0,12.7,2.2,17.3,6.2c4.6,3.9,7.2,9.3,7.2,14.8c0,5.6-2.6,10.9-7.2,14.8
		C1269.2,594.9,1263,597.2,1256.5,597.1z M1256.5,561.1c-9.7,0-17.5,6.7-17.5,15c0,8.3,7.8,15,17.5,15c9.7,0,17.5-6.7,17.5-15
		C1274,567.9,1266.2,561.2,1256.5,561.1z"/>
</g>
</svg>
